<svg width="27" height="27" viewBox="0 0 27 27" fill="none" xmlns="http://www.w3.org/2000/svg">
<path d="M5.44544 0.0443745C3.0899 0.350698 1.08823 1.98267 0.327698 4.21145C-0.020879 5.22549 0.000246906 4.67622 0.000246906 13.5068C0.000246906 21.0593 0.00552837 21.5347 0.0953133 21.9572C0.517831 23.9166 1.71672 25.4905 3.4332 26.3408C4.03529 26.6366 4.41027 26.7686 5.04405 26.9059C5.46656 26.9957 5.9419 27.001 13.4944 27.001C21.0469 27.001 21.5222 26.9957 21.9447 26.9059C23.9042 26.4834 25.478 25.2845 26.3284 23.568C26.6241 22.9659 26.7562 22.591 26.8935 21.9572C26.978 21.5505 26.9885 21.2125 26.9885 18.4186C26.9885 15.3448 26.9885 15.3289 26.8723 15.1124C26.809 14.9962 26.6611 14.8114 26.5449 14.7057C25.9903 14.204 25.0714 14.3519 24.6647 15.0068L24.5063 15.2656L24.4746 18.3341C24.4429 21.7354 24.4482 21.6509 24.0785 22.4114C23.6137 23.3568 22.737 24.0698 21.6807 24.3708C21.3532 24.4606 20.936 24.4659 13.4944 24.4659C6.03696 24.4659 5.63557 24.4606 5.30812 24.3708C3.98775 23.9958 3.0054 23.0135 2.63042 21.6931C2.54063 21.3657 2.53535 20.9484 2.53535 13.5068C2.53535 6.08637 2.54063 5.64273 2.63042 5.32056C2.92618 4.25898 3.63918 3.38754 4.58984 2.92805C5.36094 2.54779 5.26587 2.55835 8.66713 2.52666L11.7357 2.49497L11.9945 2.33653C12.6494 1.92986 12.7972 1.01088 12.2955 0.456327C12.1899 0.340136 12.005 0.192255 11.8888 0.128878C11.6723 0.0126858 11.6459 0.0126858 8.74107 0.00740433C7.13023 0.00212288 5.64613 0.0179672 5.44544 0.0443745Z" fill="#969696"/>
<path d="M17.4075 0.0595016C17.1539 0.149287 16.8371 0.434486 16.705 0.687997C16.4568 1.15805 16.5835 1.83936 16.9849 2.17209C17.381 2.5101 17.2384 2.49426 20.0693 2.52067L22.6572 2.54707L17.4972 7.72291C12.7703 12.4709 12.3372 12.9199 12.2791 13.1364C12.0151 14.1346 12.8654 14.9849 13.8636 14.7209C14.0801 14.6628 14.5185 14.2402 19.2929 9.47636L24.4793 4.28996V6.85147V9.41298L24.6061 9.68233C24.8543 10.2105 25.4458 10.5168 25.9951 10.3901C26.3437 10.3161 26.6817 10.0626 26.856 9.75627L26.988 9.51861V5.21421C26.988 1.1158 26.9827 0.899255 26.8877 0.724967C26.7504 0.466175 26.5497 0.260198 26.3014 0.128161C26.0902 0.0119686 26.0849 0.0119686 21.8386 0.00140572C18.5852 -0.00387573 17.5448 0.00668716 17.4075 0.0595016Z" fill="#969696"/>
</svg>
