<svg width="63" height="35" viewBox="0 0 63 35" fill="none" xmlns="http://www.w3.org/2000/svg">
<path d="M49.3497 1.20958C44.0899 3.27502 40.0955 10.125 39.6831 10.6627C39.6384 10.7203 39.5855 10.7877 39.5409 10.8461C39.5318 10.8445 39.5285 10.8395 39.5178 10.8379C38.5657 10.703 31.476 10.4646 31.476 10.4646C27.9354 10.4646 24.4352 10.703 23.4814 10.8379C23.4707 10.8387 23.4682 10.8436 23.4583 10.8461C23.4136 10.7877 23.3607 10.7203 23.3169 10.6627C22.9053 10.1258 18.9109 3.27584 13.6495 1.20958C7.46981 -1.21929 0 0.760642 0 0.760642C0 0.760642 5.38706 0.706375 7.85413 5.42021C9.71291 8.96813 7.70536 11.6264 7.70536 11.6264C7.70536 11.6264 10.2948 10.6775 13.6478 13.2725C15.8752 14.9984 17.0654 20.0255 17.0654 20.0255C17.0654 20.0255 20.9135 19.1202 22.8574 19.9515C27.4072 21.8919 30.0016 24.7467 30.9958 26.0203C30.9578 28.8323 30.7917 31.6847 30.5636 32.044C29.69 33.4155 28.2618 33.4689 27.389 33.6884C26.5187 33.9039 25.789 33.991 26.1882 34.421C26.7799 35.0566 31.3537 35.0007 31.5 34.9974C31.6455 35.0007 36.2193 35.0566 36.8102 34.421C37.2102 33.9927 36.4821 33.9039 35.611 33.6884C34.7374 33.4689 33.3092 33.4155 32.4364 32.044C32.2091 31.6838 32.0405 28.8323 32.0058 26.0203C32.9984 24.7467 35.5936 21.8919 40.1418 19.9515C42.0857 19.1202 45.9355 20.0255 45.9355 20.0255C45.9355 20.0255 47.124 14.9967 49.3505 13.2725C52.7061 10.6775 55.2946 11.6264 55.2946 11.6264C55.2946 11.6264 53.2887 8.96813 55.1459 5.42021C57.6121 0.706375 63 0.760642 63 0.760642C63 0.760642 55.5285 -1.21929 49.3497 1.20958ZM28.1527 19.5798C27.2089 18.6014 24.8608 15.8568 24.8608 15.8568C24.8608 15.8568 27.0171 17.3475 28.5246 19.2345C30.0941 21.2045 30.9991 24.1802 30.9991 24.2098C30.9991 24.2394 28.9833 20.4399 28.1527 19.5798ZM35.2333 19.0865C34.4035 19.9457 32.3835 23.7485 32.3835 23.7164C32.3835 23.686 33.2894 20.712 34.8613 18.7411C36.368 16.8517 38.5243 15.3634 38.5243 15.3634C38.5243 15.3634 36.1771 18.1039 35.2333 19.0865Z" fill="url(#paint0_linear_247_14779)"/>
<defs>
<linearGradient id="paint0_linear_247_14779" x1="31.5001" y1="35.0002" x2="31.5001" y2="0.000479814" gradientUnits="userSpaceOnUse">
<stop stop-color="#F82179"/>
<stop offset="1" stop-color="#DD1C72"/>
</linearGradient>
</defs>
</svg>
