<svg width="31" height="25" viewBox="0 0 31 25" fill="none" xmlns="http://www.w3.org/2000/svg">
<path d="M0.665772 0.0256329C0.214989 0.0946274 0 0.329206 0 0.756969C0 0.977749 0.0485459 1.11574 0.166443 1.25373C0.325951 1.43311 0.360626 1.44001 1.22058 1.4883C1.90716 1.5228 2.22617 1.5711 2.60761 1.70218C3.7519 2.10235 4.67427 3.02687 5.02103 4.13077C5.08345 4.32395 5.4094 6.68354 5.74922 9.3743L6.36644 14.266L6.65078 14.8248C6.80336 15.1353 7.06689 15.5355 7.23333 15.7286L7.53848 16.0667L7.29575 16.3151C7.16398 16.4462 6.97673 16.7084 6.87271 16.9015C6.70626 17.212 6.69239 17.3155 6.69239 18.0054C6.69239 18.6954 6.70626 18.7989 6.88658 19.1576C7.14318 19.6682 7.60783 20.1304 8.10716 20.365L8.5094 20.5513L8.33602 20.9308C8.10022 21.4482 8.05168 22.2279 8.21812 22.8419C8.44698 23.6767 9.0434 24.3943 9.84787 24.7875C10.1946 24.96 10.2987 24.9738 11.0268 24.9738C11.7758 24.9738 11.8521 24.96 12.2821 24.7599C13.6483 24.1114 14.3834 22.3314 13.8009 21.0274C13.7246 20.8549 13.6622 20.6893 13.6622 20.6548C13.6622 20.6203 15.7705 20.5927 18.4474 20.5927C21.1244 20.5927 23.2327 20.6203 23.2327 20.6548C23.2327 20.6893 23.1702 20.8618 23.087 21.0412C22.5877 22.1658 23.094 23.7526 24.1897 24.5047C24.7792 24.9048 25.2508 25.029 26.0136 24.9945C26.5407 24.9669 26.6864 24.9324 27.1371 24.7116C27.7682 24.4012 28.219 23.9389 28.5242 23.2973C28.7322 22.8626 28.7461 22.7867 28.7461 22.0761C28.7461 21.3516 28.7322 21.2964 28.5103 20.8411C28.2537 20.3098 27.8029 19.82 27.3244 19.5371C26.617 19.13 26.9776 19.1438 17.5875 19.1438C9.05033 19.1438 8.98792 19.1438 8.69664 18.999C8.36376 18.8403 8.11409 18.4332 8.11409 18.0399C8.11409 17.7088 8.34989 17.2672 8.61342 17.1085C8.83535 16.9705 9.02953 16.9705 17.0257 16.936L25.2092 16.9015L25.6946 16.7084C26.6586 16.3289 27.4908 15.5148 27.8445 14.5902C28.1497 13.7968 31 4.62063 31 4.43434C31 4.33085 30.9653 4.17216 30.9237 4.08247C30.7503 3.70301 31.5479 3.72371 18.496 3.68921L6.43579 3.65471L6.27629 3.25455C5.65906 1.75048 4.1472 0.508591 2.47584 0.142923C1.92103 0.018734 1.09575 -0.0364609 0.665772 0.0256329ZM29.2385 5.25537C28.7669 6.85603 26.4436 14.1418 26.3535 14.3143C26.2148 14.5902 25.7085 15.0801 25.4103 15.2319C24.9179 15.4872 24.5434 15.4941 16.9217 15.4734L9.46644 15.4527L9.07114 15.2664C8.55794 15.0318 8.09329 14.5488 7.91991 14.0866C7.82975 13.8382 7.6217 12.3962 7.25414 9.48469C6.96286 7.1527 6.72707 5.22087 6.72707 5.18637C6.72707 5.15878 11.8036 5.13808 18.0036 5.13808C28.7045 5.13808 29.2732 5.14498 29.2385 5.25537ZM11.6718 20.7721C12.0602 20.9653 12.3445 21.2895 12.4555 21.6759C12.7745 22.7798 11.8591 23.725 10.7009 23.4905C9.40403 23.2214 9.1613 21.393 10.3472 20.8066C10.7148 20.6272 11.3459 20.6134 11.6718 20.7721ZM26.7072 20.9032C27.5949 21.5241 27.4978 22.8764 26.5338 23.3663C25.9928 23.6491 25.119 23.518 24.7515 23.1041C24.2452 22.5314 24.2591 21.5862 24.7723 21.1033C25.1606 20.7307 25.3617 20.6548 25.9166 20.6824C26.3396 20.6962 26.4575 20.7307 26.7072 20.9032Z" fill="white"/>
</svg>
