<svg width="391" height="129" viewBox="0 0 391 129" fill="none" xmlns="http://www.w3.org/2000/svg">
<path d="M353.75 0H24.8889C24.3366 0 23.8889 0.447714 23.8889 0.999998V51.8116C23.8889 51.9089 23.9031 52.0057 23.9311 52.0989L28.8777 68.5877C29.0702 69.2293 28.5897 69.875 27.9199 69.875H1C0.447715 69.875 0 70.3227 0 70.875V128C0 128.552 0.447709 129 0.999994 129H389.583C390.136 129 390.583 128.552 390.583 128V70.875C390.583 70.3227 390.136 69.875 389.583 69.875H339.248C338.357 69.875 337.91 68.7979 338.54 68.1679L354.457 52.2512C354.645 52.0637 354.75 51.8093 354.75 51.5441V1C354.75 0.447715 354.302 0 353.75 0Z" fill="white"/>
</svg>
