<svg width="21" height="22.2" viewBox="0 0 21 22.2" fill="none" xmlns="http://www.w3.org/2000/svg">
<path fill-rule="evenodd" clip-rule="evenodd" d="M0 10.484C0 5.19061 4.2912 0.899414 9.58461 0.899414C14.878 0.899414 19.1692 5.19061 19.1692 10.484C19.1692 15.7774 14.878 20.0686 9.58461 20.0686C4.2912 20.0686 0 15.7774 0 10.484ZM9.58461 3.27821C5.60497 3.27821 2.3788 6.50439 2.3788 10.484C2.3788 14.4637 5.60497 17.6898 9.58461 17.6898C13.5643 17.6898 16.7904 14.4637 16.7904 10.484C16.7904 6.50439 13.5643 3.27821 9.58461 3.27821Z" fill="white"/>
<path fill-rule="evenodd" clip-rule="evenodd" d="M14.779 16.8806C15.2435 16.4161 15.9966 16.4161 16.4611 16.8806L20.6514 21.0709C21.1159 21.5354 21.1159 22.2885 20.6514 22.753C20.187 23.2175 19.4339 23.2175 18.9694 22.753L14.779 18.5627C14.3145 18.0982 14.3145 17.3451 14.779 16.8806Z" fill="white"/>
</svg>
