<svg width="12" height="12" viewBox="0 0 12 12" fill="none" xmlns="http://www.w3.org/2000/svg">
<path d="M9.27275 0C7.9557 0 6.85374 0.938484 6.60036 2.18182H0.545473C0.324809 2.18182 0.125919 2.31476 0.0414969 2.51862C-0.0429014 2.72248 0.00383292 2.95713 0.159903 3.11309L4.36365 7.3144V10.9091H2.72603C2.42478 10.9091 2.18057 11.1533 2.18057 11.4545C2.18057 11.7558 2.42478 12 2.72603 12H7.09219C7.39344 12 7.63765 11.7558 7.63765 11.4545C7.63765 11.1533 7.39344 10.9091 7.09219 10.9091H5.45457V7.3144L7.7678 5.00255C8.2103 5.29655 8.72937 5.45454 9.27275 5.45454C10.7766 5.45454 12 4.2311 12 2.72728C12 1.22346 10.7766 0 9.27275 0ZM4.90911 6.3172L1.86285 3.27274H7.95535L4.90911 6.3172ZM9.27275 4.36364C9.02424 4.36364 8.78428 4.30845 8.5666 4.2042L9.65834 3.11311C9.81441 2.95711 9.86114 2.7225 9.7767 2.51864C9.6923 2.31478 9.49339 2.18184 9.27272 2.18184H7.73019C7.95535 1.54702 8.56163 1.09095 9.27272 1.09095C10.175 1.09095 10.9091 1.82501 10.9091 2.7273C10.9091 3.6296 10.175 4.36364 9.27275 4.36364Z" fill="#110936"/>
</svg>
